<svg xmlns="http://www.w3.org/2000/svg" xmlns:xlink="http://www.w3.org/1999/xlink" width="500" zoomAndPan="magnify" viewBox="0 0 375 374.999991" height="500" preserveAspectRatio="xMidYMid meet" version="1.0"><defs><clipPath id="2a1a4c736b"><path d="M 151 76.226562 L 227 76.226562 L 227 265 L 151 265 Z M 151 76.226562 " clip-rule="nonzero"/></clipPath><clipPath id="4bc4dd1f41"><path d="M 184 224 L 372.289062 224 L 372.289062 298.953125 L 184 298.953125 Z M 184 224 " clip-rule="nonzero"/></clipPath><clipPath id="738845a0cf"><path d="M 2.539062 224 L 191 224 L 191 298.953125 L 2.539062 298.953125 Z M 2.539062 224 " clip-rule="nonzero"/></clipPath></defs><path fill="#545454" d="M 247.828125 95.660156 C 204.242188 127.488281 180.257812 165.730469 178.414062 206.441406 C 177.226562 232.566406 185.503906 252.304688 188.414062 258.371094 C 194.542969 255.613281 213.582031 245.882812 229.507812 225.148438 C 254.320312 192.851562 260.632812 148.140625 247.828125 95.660156 Z M 186.15625 264.554688 L 185.125 262.734375 C 184.59375 261.792969 172.078125 239.285156 173.496094 206.484375 C 174.324219 187.234375 179.828125 168.46875 189.851562 150.707031 C 202.320312 128.613281 221.855469 108.035156 247.910156 89.546875 L 250.8125 87.484375 L 251.707031 90.9375 C 259.703125 121.894531 261.375 150.238281 256.667969 175.171875 C 252.886719 195.222656 245.003906 213.117188 233.238281 228.359375 C 213.1875 254.339844 189.128906 263.453125 188.113281 263.828125 L 186.15625 264.554688 " fill-opacity="1" fill-rule="nonzero"/><g clip-path="url(#2a1a4c736b)"><path fill="#545454" d="M 191.15625 84.964844 C 160.089844 129.265625 149.734375 173.296875 161.210938 212.488281 C 168.542969 237.523438 182.644531 253.394531 187.335938 258.167969 C 192.246094 253.585938 207.136719 238.21875 215.53125 213.445312 C 228.613281 174.859375 220.183594 130.5 191.15625 84.964844 Z M 187.191406 264.75 L 185.632812 263.359375 C 184.824219 262.640625 165.726562 245.378906 156.5 213.871094 C 151.085938 195.386719 150.25 175.847656 154.015625 155.796875 C 158.699219 130.855469 170.558594 105.066406 189.265625 79.152344 L 191.351562 76.261719 L 193.304688 79.238281 C 210.851562 105.957031 221.5625 132.246094 225.140625 157.371094 C 228.019531 177.566406 226.320312 197.050781 220.097656 215.277344 C 209.488281 246.347656 189.648438 262.75 188.8125 263.429688 L 187.191406 264.75 " fill-opacity="1" fill-rule="nonzero"/></g><path fill="#545454" d="M 190.203125 259.914062 C 196.621094 261.886719 217.34375 267.140625 242.976562 262.0625 C 282.894531 254.15625 317.074219 224.703125 341.996094 176.789062 C 288.152344 171.9375 244.882812 184.925781 216.695312 214.445312 C 198.691406 233.300781 191.992188 253.460938 190.203125 259.914062 Z M 220.699219 269.164062 C 200.621094 269.164062 187.136719 264.109375 186.386719 263.820312 L 184.4375 263.074219 L 184.859375 261.023438 C 185.078125 259.964844 190.488281 234.78125 213.144531 211.046875 C 226.441406 197.125 242.933594 186.644531 262.164062 179.90625 C 286.085938 171.523438 314.316406 168.949219 346.082031 172.246094 L 349.621094 172.613281 L 348.019531 175.796875 C 333.652344 204.359375 316.253906 226.769531 296.296875 242.414062 C 280.257812 254.992188 262.546875 263.242188 243.667969 266.9375 C 235.390625 268.558594 227.648438 269.164062 220.699219 269.164062 " fill-opacity="1" fill-rule="nonzero"/><path fill="#545454" d="M 189.628906 259.148438 C 196.347656 259.238281 217.710938 258.441406 240.878906 246.355469 C 276.96875 227.53125 301.503906 189.640625 311.964844 136.648438 C 258.933594 147.148438 221.054688 171.792969 202.292969 208.058594 C 190.308594 231.222656 189.535156 252.453125 189.628906 259.148438 Z M 190.894531 264.09375 C 188.640625 264.09375 187.292969 263.992188 187.0625 263.972656 L 184.984375 263.804688 L 184.816406 261.722656 C 184.726562 260.640625 182.847656 234.949219 197.929688 205.796875 C 206.78125 188.691406 219.667969 173.992188 236.230469 162.113281 C 256.832031 147.332031 283.203125 136.914062 314.609375 131.136719 L 318.113281 130.492188 L 317.46875 134 C 311.699219 165.449219 301.292969 191.859375 286.535156 212.488281 C 274.671875 229.074219 259.996094 241.976562 242.914062 250.839844 C 220 262.726562 199.230469 264.09375 190.894531 264.09375 " fill-opacity="1" fill-rule="nonzero"/><g clip-path="url(#4bc4dd1f41)"><path fill="#545454" d="M 190.617188 261.523438 C 195.304688 266.34375 210.972656 280.90625 235.882812 288.765625 C 274.699219 301.007812 318.800781 291.585938 363.621094 261.523438 C 318.800781 231.460938 274.699219 222.039062 235.882812 234.285156 C 210.972656 242.140625 195.304688 256.703125 190.617188 261.523438 Z M 270.492188 298.953125 C 258.003906 298.953125 245.847656 297.089844 234.15625 293.375 C 202.902344 283.4375 186.09375 263.941406 185.390625 263.117188 L 184.039062 261.523438 L 185.390625 259.929688 C 186.09375 259.105469 202.902344 239.605469 234.15625 229.671875 C 252.492188 223.84375 271.980469 222.574219 292.082031 225.902344 C 317.085938 230.039062 343.09375 241.34375 369.382812 259.5 L 372.3125 261.523438 L 369.382812 263.546875 C 343.09375 281.703125 317.085938 293.003906 292.082031 297.144531 C 284.800781 298.351562 277.589844 298.953125 270.492188 298.953125 " fill-opacity="1" fill-rule="nonzero"/></g><path fill="#545454" d="M 127.023438 95.660156 C 114.21875 148.140625 120.53125 192.851562 145.34375 225.148438 C 161.269531 245.878906 180.304688 255.613281 186.4375 258.371094 C 189.347656 252.308594 197.625 232.566406 196.4375 206.441406 C 194.589844 165.730469 170.609375 127.488281 127.023438 95.660156 Z M 188.695312 264.554688 L 186.738281 263.828125 C 185.722656 263.453125 161.664062 254.339844 141.613281 228.359375 C 129.847656 213.117188 121.964844 195.222656 118.183594 175.171875 C 113.476562 150.238281 115.144531 121.894531 123.144531 90.9375 L 124.039062 87.484375 L 126.941406 89.546875 C 152.996094 108.035156 172.53125 128.613281 185 150.707031 C 195.023438 168.46875 200.527344 187.234375 201.355469 206.484375 C 202.773438 239.285156 190.257812 261.792969 189.726562 262.734375 L 188.695312 264.554688 " fill-opacity="1" fill-rule="nonzero"/><path fill="#545454" d="M 32.855469 176.789062 C 57.832031 224.800781 92.097656 254.277344 132.125 262.113281 C 157.695312 267.117188 178.257812 261.890625 184.648438 259.914062 C 182.84375 253.4375 176.074219 233.128906 157.980469 214.261719 C 129.792969 184.871094 86.582031 171.949219 32.855469 176.789062 Z M 154.152344 269.164062 C 147.199219 269.164062 139.460938 268.558594 131.183594 266.9375 C 112.304688 263.242188 94.59375 254.992188 78.554688 242.414062 C 58.597656 226.769531 41.199219 204.359375 26.832031 175.796875 L 25.230469 172.613281 L 28.769531 172.246094 C 60.535156 168.949219 88.769531 171.527344 112.6875 179.90625 C 131.917969 186.644531 148.410156 197.125 161.707031 211.046875 C 184.363281 234.78125 189.773438 259.964844 189.992188 261.023438 L 190.414062 263.074219 L 188.46875 263.820312 C 187.714844 264.109375 174.226562 269.164062 154.152344 269.164062 " fill-opacity="1" fill-rule="nonzero"/><path fill="#545454" d="M 62.886719 136.648438 C 73.375 189.753906 97.984375 227.6875 134.199219 246.472656 C 157.332031 258.476562 178.527344 259.246094 185.21875 259.152344 C 185.304688 252.429688 184.511719 231.035156 172.441406 207.832031 C 153.640625 171.691406 115.804688 147.125 62.886719 136.648438 Z M 183.957031 264.09375 C 175.621094 264.09375 154.851562 262.726562 131.941406 250.839844 C 114.855469 241.976562 100.179688 229.074219 88.316406 212.488281 C 73.558594 191.859375 63.152344 165.449219 57.382812 134 L 56.738281 130.492188 L 60.242188 131.136719 C 91.648438 136.914062 118.019531 147.332031 138.625 162.113281 C 155.183594 173.992188 168.070312 188.691406 176.917969 205.796875 C 192.003906 234.949219 190.125 260.640625 190.035156 261.722656 L 189.867188 263.804688 L 187.789062 263.972656 C 187.558594 263.992188 186.210938 264.09375 183.957031 264.09375 " fill-opacity="1" fill-rule="nonzero"/><g clip-path="url(#738845a0cf)"><path fill="#545454" d="M 11.234375 261.523438 C 56.050781 291.585938 100.15625 301.007812 138.964844 288.765625 C 163.875 280.90625 179.546875 266.34375 184.234375 261.523438 C 179.546875 256.703125 163.878906 242.140625 138.964844 234.285156 C 100.152344 222.039062 56.050781 231.460938 11.234375 261.523438 Z M 104.359375 298.953125 C 97.257812 298.953125 90.054688 298.351562 82.769531 297.144531 C 57.765625 293.003906 31.757812 281.703125 5.46875 263.546875 L 2.539062 261.523438 L 5.46875 259.5 C 31.757812 241.34375 57.765625 230.039062 82.769531 225.902344 C 102.867188 222.574219 122.359375 223.84375 140.695312 229.671875 C 171.949219 239.605469 188.761719 259.105469 189.460938 259.929688 L 190.8125 261.523438 L 189.460938 263.117188 C 188.761719 263.941406 171.949219 283.4375 140.695312 293.375 C 129.003906 297.089844 116.847656 298.953125 104.359375 298.953125 " fill-opacity="1" fill-rule="nonzero"/></g></svg>