<svg xmlns="http://www.w3.org/2000/svg" xmlns:xlink="http://www.w3.org/1999/xlink" width="500" zoomAndPan="magnify" viewBox="0 0 375 374.999991" height="500" preserveAspectRatio="xMidYMid meet" version="1.0"><defs><clipPath id="444f882407"><path d="M 78.628906 70.625 L 367.378906 70.625 L 367.378906 365.375 L 78.628906 365.375 Z M 78.628906 70.625 " clip-rule="nonzero"/></clipPath></defs><path fill="#f3ba35" d="M 0 0 L 0 375 L 375 375 L 375 0 L 0 0 M 363.054688 363.054688 L 11.695312 363.054688 L 11.695312 11.695312 L 363.054688 11.695312 L 363.054688 363.054688 " fill-opacity="1" fill-rule="nonzero"/><g clip-path="url(#444f882407)"><path fill="#f3ba35" d="M 365.878906 70.628906 L 344.851562 70.628906 C 344.648438 70.628906 344.453125 70.667969 344.269531 70.746094 L 238.167969 115.980469 L 226.082031 121.125 C 225.101562 121.542969 224.015625 120.824219 224.015625 119.765625 L 224.015625 72.109375 C 224.015625 71.289062 223.347656 70.628906 222.53125 70.628906 L 211.347656 70.628906 C 210.527344 70.628906 209.863281 71.289062 209.863281 72.109375 L 209.863281 127.066406 C 209.863281 127.664062 209.507812 128.199219 208.960938 128.429688 L 185.074219 138.613281 C 184.527344 138.851562 184.171875 139.382812 184.171875 139.980469 L 184.171875 152.125 C 184.171875 153.191406 185.257812 153.90625 186.238281 153.488281 L 209.863281 143.417969 L 238.167969 131.347656 L 366.460938 76.648438 C 367.007812 76.417969 367.359375 75.882812 367.359375 75.285156 L 367.359375 72.109375 C 367.359375 71.289062 366.699219 70.628906 365.878906 70.628906 Z M 209.863281 207.921875 C 209.863281 206.855469 208.773438 206.140625 207.796875 206.554688 L 184.171875 216.632812 C 182.96875 217.148438 182.96875 218.847656 184.171875 219.359375 L 207.796875 229.433594 C 208.773438 229.851562 209.863281 229.132812 209.863281 228.070312 Z M 155.867188 205.046875 L 155.867188 168.683594 C 155.867188 167.617188 154.777344 166.902344 153.800781 167.316406 L 111.148438 185.503906 C 109.945312 186.011719 109.945312 187.71875 111.148438 188.230469 L 153.800781 206.414062 C 154.777344 206.828125 155.867188 206.113281 155.867188 205.046875 Z M 364.613281 296.292969 C 365.160156 296.527344 365.515625 297.058594 365.515625 297.65625 L 365.515625 309.816406 C 365.515625 310.875 364.425781 311.597656 363.449219 311.175781 L 238.167969 257.761719 L 224.015625 251.722656 L 163.527344 225.933594 C 163.152344 225.773438 162.730469 225.773438 162.359375 225.933594 L 111.148438 247.769531 C 109.945312 248.28125 109.945312 249.980469 111.148438 250.496094 L 153.800781 268.675781 C 154.777344 269.097656 155.867188 268.375 155.867188 267.316406 L 155.867188 244.714844 C 155.867188 244.097656 156.25 243.542969 156.832031 243.324219 L 162.941406 241.054688 L 163.007812 241.023438 L 169.121094 243.636719 C 169.664062 243.867188 170.019531 244.40625 170.019531 244.996094 L 170.019531 274.617188 C 170.019531 275.207031 170.375 275.746094 170.921875 275.976562 L 184.171875 281.628906 L 207.796875 291.699219 C 208.773438 292.117188 209.863281 291.398438 209.863281 290.335938 L 209.863281 263.300781 C 209.863281 262.242188 210.949219 261.523438 211.929688 261.941406 L 223.492188 266.867188 L 224.015625 267.09375 L 224.015625 363.894531 C 224.015625 364.714844 223.347656 365.375 222.53125 365.375 L 211.347656 365.375 C 210.527344 365.375 209.863281 364.714844 209.863281 363.894531 L 209.863281 308.9375 C 209.863281 308.339844 209.507812 307.804688 208.960938 307.570312 L 184.171875 297 L 172.085938 291.84375 C 171.105469 291.425781 170.019531 292.144531 170.019531 293.207031 L 170.019531 363.894531 C 170.019531 364.714844 169.355469 365.375 168.535156 365.375 L 157.347656 365.375 C 156.53125 365.375 155.867188 364.714844 155.867188 363.894531 L 155.867188 285.90625 C 155.867188 285.3125 155.511719 284.777344 154.964844 284.546875 L 79.515625 252.382812 C 78.96875 252.148438 78.617188 251.613281 78.617188 251.019531 L 78.617188 247.242188 C 78.617188 246.648438 78.96875 246.113281 79.515625 245.878906 L 141.714844 219.359375 C 142.914062 218.847656 142.914062 217.148438 141.714844 216.632812 L 79.515625 190.113281 C 78.96875 189.882812 78.617188 189.347656 78.617188 188.753906 L 78.617188 184.976562 C 78.617188 184.382812 78.96875 183.847656 79.515625 183.617188 L 154.964844 151.445312 C 155.511719 151.210938 155.867188 150.675781 155.867188 150.082031 L 155.867188 72.109375 C 155.867188 71.289062 156.53125 70.628906 157.347656 70.628906 L 168.535156 70.628906 C 169.355469 70.628906 170.019531 71.289062 170.019531 72.109375 L 170.019531 205.046875 C 170.019531 206.113281 171.105469 206.828125 172.085938 206.414062 L 184.171875 201.257812 L 208.960938 190.691406 C 209.507812 190.457031 209.863281 189.921875 209.863281 189.328125 L 209.863281 159.765625 C 209.863281 159.171875 210.21875 158.632812 210.765625 158.402344 L 221.949219 153.640625 C 222.929688 153.222656 224.015625 153.9375 224.015625 155 L 224.015625 235.375 C 224.015625 235.96875 224.371094 236.503906 224.917969 236.738281 L 238.167969 242.382812 Z M 240.238281 192.730469 L 364.613281 139.703125 C 365.160156 139.46875 365.511719 138.933594 365.511719 138.339844 L 365.511719 126.191406 C 365.511719 125.125 364.425781 124.410156 363.445312 124.828125 L 239.070312 177.855469 C 238.523438 178.089844 238.167969 178.625 238.167969 179.21875 L 238.167969 191.367188 C 238.167969 192.429688 239.257812 193.148438 240.238281 192.730469 Z M 367.359375 360.71875 L 367.359375 363.894531 C 367.359375 364.714844 366.699219 365.375 365.878906 365.375 L 344.851562 365.375 C 344.648438 365.375 344.453125 365.335938 344.269531 365.257812 L 239.070312 320.410156 C 238.523438 320.175781 238.167969 319.636719 238.167969 319.042969 L 238.167969 306.898438 C 238.167969 305.835938 239.253906 305.117188 240.234375 305.535156 L 366.460938 359.351562 C 367.007812 359.585938 367.359375 360.121094 367.359375 360.71875 " fill-opacity="1" fill-rule="nonzero"/></g></svg>